<svg width="655" height="130" viewBox="0 0 655 130" fill="none" xmlns="http://www.w3.org/2000/svg">
<path d="M650.859 1H3C1.89543 1 1 1.89543 1 3V115.314C1 115.759 1.14824 116.191 1.4213 116.542L7.9213 124.899C9.09043 126.402 11.5 125.575 11.5 123.671V118C11.5 116.895 12.3954 116 13.5 116H650.754C652.353 116 653.305 114.216 652.416 112.887L617.726 61.0843C617.285 60.4254 617.275 59.568 617.7 58.8987L652.547 4.07283C653.393 2.74133 652.437 1 650.859 1Z" fill="#FF0083" stroke="#FF0083"/>
<path d="M223.391 59.734C226.165 60.076 228.217 60.969 229.547 62.413C230.915 63.819 231.599 65.567 231.599 67.657C231.599 69.747 230.82 71.723 229.262 73.585C227.742 75.447 225.785 76.891 223.391 77.917C222.327 78.335 220.921 78.639 219.173 78.829C217.463 79.019 215.696 79.114 213.872 79.114C210.832 79.114 207.716 78.829 204.524 78.259C203.954 78.145 203.346 77.86 202.7 77.404C202.092 76.948 201.788 76.283 201.788 75.409C201.75 71.913 201.617 67.049 201.389 60.817L201.332 57.682C201.18 52.818 201.104 48.999 201.104 46.225C201.104 45.731 201.389 45.161 201.959 44.515C202.567 43.831 203.289 43.451 204.125 43.375C204.619 43.375 205.094 43.356 205.55 43.318C209.844 42.9 212.713 42.691 214.157 42.691C217.007 42.691 219.515 42.976 221.681 43.546C223.885 44.078 225.709 45.066 227.153 46.51C227.685 47.118 228.122 47.897 228.464 48.847C228.806 49.759 228.977 50.652 228.977 51.526C229.015 53.388 228.521 55.098 227.495 56.656C226.507 58.214 225.139 59.24 223.391 59.734ZM214.499 47.536C213.207 47.536 211.858 47.612 210.452 47.764C209.084 47.916 207.925 48.106 206.975 48.334L207.317 59.107L209.369 59.05C212.675 58.708 215.107 58.423 216.665 58.195C217.653 57.967 218.622 57.53 219.572 56.884C220.522 56.2 221.301 55.497 221.909 54.775C222.555 54.015 222.878 53.445 222.878 53.065C222.878 52.495 222.764 51.925 222.536 51.355C222.308 50.747 222.061 50.31 221.795 50.044C220.769 49.056 219.724 48.391 218.66 48.049C217.596 47.707 216.209 47.536 214.499 47.536ZM207.488 74.098C209.426 74.364 211.269 74.497 213.017 74.497C216.855 74.497 219.876 74.003 222.08 73.015C224.322 71.989 225.443 70.051 225.443 67.201C225.443 66.061 224.588 65.111 222.878 64.351C221.168 63.591 219.325 63.211 217.349 63.211C216.019 63.211 214.328 63.363 212.276 63.667C210.642 63.895 209.046 64.047 207.488 64.123C207.564 66.403 207.602 67.847 207.602 68.455C207.602 69.633 207.583 70.526 207.545 71.134L207.488 74.098ZM236.415 66.916C236.415 65.472 236.681 64.028 237.213 62.584C237.745 61.102 238.448 59.753 239.322 58.537C240.196 57.321 241.583 56.333 243.483 55.573C245.383 54.775 247.074 54.376 248.556 54.376C250.076 54.376 251.615 54.585 253.173 55.003C254.769 55.421 255.871 56.067 256.479 56.941C257.885 58.917 258.588 60.855 258.588 62.755C258.588 63.781 258.36 64.655 257.904 65.377C257.486 66.099 256.878 66.878 256.08 67.714C255.434 68.398 254.408 68.854 253.002 69.082C251.634 69.31 250.266 69.424 248.898 69.424C248.024 69.424 246.96 69.348 245.706 69.196C244.452 69.006 243.236 68.778 242.058 68.512C242.134 69.272 242.324 70.013 242.628 70.735C242.932 71.457 243.293 72.008 243.711 72.388C244.471 73.11 245.25 73.566 246.048 73.756C246.884 73.946 247.948 74.041 249.24 74.041C250.608 74.041 251.881 73.813 253.059 73.357C254.009 73.015 254.788 72.844 255.396 72.844C256.118 72.844 256.669 73.072 257.049 73.528C257.429 73.946 257.619 74.497 257.619 75.181C257.619 76.131 257.068 76.91 255.966 77.518C254.864 78.126 253.591 78.582 252.147 78.886C250.741 79.152 249.601 79.285 248.727 79.285C246.941 79.285 245.212 78.962 243.54 78.316C241.868 77.67 240.481 76.758 239.379 75.58C238.467 74.516 237.745 73.243 237.213 71.761C236.681 70.241 236.415 68.626 236.415 66.916ZM248.841 59.221C248.005 59.221 247.169 59.392 246.333 59.734C245.497 60.038 244.813 60.475 244.281 61.045C243.597 61.767 243.122 62.356 242.856 62.812C242.628 63.23 242.476 63.819 242.4 64.579C243.35 64.883 245.326 65.035 248.328 65.035C249.962 65.035 251.216 64.788 252.09 64.294C253.002 63.8 253.458 63.154 253.458 62.356C253.458 61.558 252.964 60.836 251.976 60.19C250.988 59.544 249.943 59.221 248.841 59.221ZM279.995 66.175C280.299 66.365 280.888 66.726 281.762 67.258C282.674 67.752 283.282 68.341 283.586 69.025C283.89 69.709 284.042 70.659 284.042 71.875C284.042 73.243 283.643 74.459 282.845 75.523C282.047 76.549 281.021 77.347 279.767 77.917C278.855 78.335 277.734 78.658 276.404 78.886C275.112 79.114 274.086 79.228 273.326 79.228C272.566 79.228 271.578 79.114 270.362 78.886C269.184 78.658 268.367 78.449 267.911 78.259C266.733 77.575 265.707 76.739 264.833 75.751C263.997 74.763 263.579 73.756 263.579 72.73C263.579 71.97 263.826 71.381 264.32 70.963C264.814 70.507 265.46 70.279 266.258 70.279C266.638 70.279 267.037 70.431 267.455 70.735C267.873 71.001 268.158 71.286 268.31 71.59C268.728 72.578 269.431 73.319 270.419 73.813C271.407 74.307 272.414 74.554 273.44 74.554C274.77 74.554 276.005 74.345 277.145 73.927C278.285 73.471 278.855 72.863 278.855 72.103C278.855 71.761 278.76 71.495 278.57 71.305C278.418 71.077 278.19 70.849 277.886 70.621C277.354 70.241 276.556 69.937 275.492 69.709C274.428 69.443 273.744 69.272 273.44 69.196C271.882 68.854 270.362 68.341 268.88 67.657C267.398 66.935 266.22 66.08 265.346 65.092C264.472 64.104 264.035 62.831 264.035 61.273C264.035 60.247 264.415 59.183 265.175 58.081C265.935 56.941 266.79 56.143 267.74 55.687C268.424 55.421 269.564 55.136 271.16 54.832C272.794 54.528 273.896 54.376 274.466 54.376C275.34 54.376 276.29 54.471 277.316 54.661C278.342 54.813 279.121 55.079 279.653 55.459C280.679 56.067 281.515 56.713 282.161 57.397C282.807 58.043 283.13 58.784 283.13 59.62C283.13 60.038 283.035 60.494 282.845 60.988C282.655 61.444 282.427 61.729 282.161 61.843C281.591 62.109 280.926 62.242 280.166 62.242C279.824 62.242 279.539 62.147 279.311 61.957C279.121 61.767 278.855 61.463 278.513 61.045C278.095 60.399 277.696 60.019 277.316 59.905C276.86 59.791 276.195 59.658 275.321 59.506C274.447 59.316 273.858 59.221 273.554 59.221C272.68 59.221 271.768 59.468 270.818 59.962C269.906 60.456 269.45 61.026 269.45 61.672C269.45 62.014 269.583 62.28 269.849 62.47C270.153 62.66 270.457 62.831 270.761 62.983C271.103 63.135 271.331 63.23 271.445 63.268C272.243 63.648 273.117 63.971 274.067 64.237C275.055 64.503 275.663 64.674 275.891 64.75C277.943 65.244 279.311 65.719 279.995 66.175ZM289.417 59.164C288.885 59.088 288.448 58.879 288.106 58.537C287.802 58.157 287.65 57.701 287.65 57.169C287.65 56.485 287.916 55.915 288.448 55.459C288.562 55.345 288.752 55.25 289.018 55.174C289.284 55.06 289.493 54.965 289.645 54.889C290.481 54.623 291.013 54.414 291.241 54.262C292.115 53.73 292.704 52.856 293.008 51.64C293.312 50.196 293.502 49.208 293.578 48.676C293.654 47.84 293.92 47.213 294.376 46.795C294.87 46.339 295.478 46.111 296.2 46.111C297.15 46.111 297.815 46.358 298.195 46.852C298.575 47.346 298.765 48.258 298.765 49.588C298.765 51.336 298.347 52.989 297.511 54.547C298.043 54.547 298.917 54.509 300.133 54.433C301.957 54.357 303.23 54.319 303.952 54.319C304.598 54.319 305.149 54.49 305.605 54.832C306.099 55.136 306.346 55.592 306.346 56.2C306.346 57.644 305.681 58.499 304.351 58.765C303.135 59.107 300.931 59.316 297.739 59.392C297.473 63.116 297.34 66.061 297.34 68.227C297.34 69.557 297.397 70.507 297.511 71.077C297.739 72.255 298.119 73.129 298.651 73.699C299.221 74.231 300.057 74.497 301.159 74.497C301.691 74.497 302.489 74.364 303.553 74.098C304.199 73.908 304.712 73.813 305.092 73.813C305.586 73.813 305.966 73.984 306.232 74.326C306.498 74.668 306.631 75.124 306.631 75.694C306.631 76.72 305.966 77.575 304.636 78.259C303.306 78.905 301.729 79.228 299.905 79.228C298.765 79.228 297.644 78.962 296.542 78.43C295.44 77.86 294.509 77.176 293.749 76.378C293.597 76.302 293.369 75.884 293.065 75.124C292.799 74.364 292.533 73.528 292.267 72.616C292.153 72.16 292.096 71.058 292.096 69.31C292.096 67.638 292.21 64.75 292.438 60.646L292.495 59.392C292.229 59.392 291.735 59.373 291.013 59.335C290.291 59.259 289.759 59.202 289.417 59.164ZM327.815 44.515C329.221 48.695 330.817 53.293 332.603 58.309C334.389 63.287 336.023 67.6 337.505 71.248C338.607 67.714 340.127 63.477 342.065 58.537C344.003 53.559 345.808 49.075 347.48 45.085C347.974 43.907 348.81 43.318 349.988 43.318C351.09 43.318 351.926 43.546 352.496 44.002C353.066 44.42 353.351 45.161 353.351 46.225C353.351 46.643 353.294 47.004 353.18 47.308C353.066 47.612 352.895 48.011 352.667 48.505C351.489 50.823 350.311 53.502 349.133 56.542C347.955 59.544 346.511 63.363 344.801 67.999C344.877 67.809 344.345 69.234 343.205 72.274L341.324 77.176C341.096 77.784 340.716 78.259 340.184 78.601C339.69 78.905 339.12 79.057 338.474 79.057C337.828 79.057 337.106 78.905 336.308 78.601C335.548 78.259 334.997 77.917 334.655 77.575C333.363 75.105 331.71 71.533 329.696 66.859C327.72 62.185 326.01 57.872 324.566 53.92L323.711 51.583C323.141 49.987 322.723 48.771 322.457 47.935C322.191 47.061 322.058 46.358 322.058 45.826C322.058 45.066 322.476 44.458 323.312 44.002C324.186 43.546 325.022 43.318 325.82 43.318C326.238 43.318 326.637 43.413 327.017 43.603C327.397 43.793 327.663 44.097 327.815 44.515ZM378.765 79.228C377.473 79.228 376.485 79.038 375.801 78.658C375.117 78.24 374.376 77.48 373.578 76.378C372.59 77.252 371.108 77.955 369.132 78.487C367.194 79.019 365.522 79.285 364.116 79.285C361.798 79.285 359.917 78.658 358.473 77.404C357.067 76.112 356.364 74.231 356.364 71.761C356.364 70.697 356.649 69.728 357.219 68.854C357.827 67.942 358.606 67.144 359.556 66.46C360.62 65.738 361.874 65.168 363.318 64.75C364.8 64.332 366.149 64.123 367.365 64.123C369.417 64.123 371.241 64.313 372.837 64.693V64.636C372.837 62.584 372.324 61.178 371.298 60.418C370.31 59.62 368.714 59.221 366.51 59.221C365.104 59.221 363.888 59.848 362.862 61.102C362.482 61.596 361.684 61.843 360.468 61.843C359.86 61.843 359.404 61.596 359.1 61.102C358.834 60.57 358.701 60.038 358.701 59.506C358.701 58.404 359.157 57.454 360.069 56.656C361.019 55.858 362.159 55.269 363.489 54.889C364.819 54.471 366.054 54.262 367.194 54.262C368.296 54.262 369.607 54.49 371.127 54.946C372.647 55.402 373.882 56.01 374.832 56.77C375.972 57.758 376.846 58.917 377.454 60.247C378.1 61.539 378.423 62.964 378.423 64.522C378.423 65.016 378.385 65.757 378.309 66.745C378.233 67.885 378.195 68.816 378.195 69.538C378.195 69.88 378.157 70.317 378.081 70.849C378.005 71.533 377.967 72.103 377.967 72.559C377.967 73.053 378.119 73.528 378.423 73.984C378.727 74.44 379.145 74.82 379.677 75.124C380.171 75.39 380.494 75.675 380.646 75.979C380.798 76.283 380.874 76.625 380.874 77.005C380.874 77.385 380.627 77.86 380.133 78.43C379.677 78.962 379.221 79.228 378.765 79.228ZM367.365 68.341C365.883 68.341 364.572 68.626 363.432 69.196C362.292 69.766 361.722 70.773 361.722 72.217C361.722 72.939 361.969 73.547 362.463 74.041C362.995 74.535 363.565 74.782 364.173 74.782C365.807 74.782 367.175 74.611 368.277 74.269C369.379 73.927 370.709 73.3 372.267 72.388C372.457 71.78 372.571 70.925 372.609 69.823C372.609 69.405 372.628 69.082 372.666 68.854C370.614 68.512 368.847 68.341 367.365 68.341ZM391.544 70.165C391.544 71.609 391.753 72.73 392.171 73.528C392.627 74.288 393.197 74.668 393.881 74.668C394.261 74.668 394.622 74.649 394.964 74.611C395.306 74.535 395.648 74.497 395.99 74.497C396.37 74.497 396.693 74.687 396.959 75.067C397.263 75.447 397.415 75.865 397.415 76.321C397.415 77.233 396.978 77.955 396.104 78.487C395.268 78.981 394.128 79.228 392.684 79.228C391.658 79.228 390.613 78.924 389.549 78.316C388.523 77.67 387.668 76.682 386.984 75.352C386.3 73.984 385.958 72.293 385.958 70.279C385.958 65.947 386.034 62.28 386.186 59.278C386.376 55.706 386.471 51.203 386.471 45.769C386.471 44.059 386.566 42.862 386.756 42.178C386.984 41.646 387.345 41.247 387.839 40.981C388.371 40.677 388.922 40.525 389.492 40.525C390.062 40.525 390.556 40.62 390.974 40.81C391.43 41 391.734 41.304 391.886 41.722C392.038 42.178 392.133 42.634 392.171 43.09C392.247 43.508 392.285 44.116 392.285 44.914C392.285 46.472 392.228 47.973 392.114 49.417C392.038 51.165 392 52.438 392 53.236C391.696 59.924 391.544 65.567 391.544 70.165ZM400.675 59.791C400.371 59.791 400.105 59.677 399.877 59.449C399.649 59.183 399.535 58.879 399.535 58.537C399.535 57.435 399.896 56.599 400.618 56.029C401.34 55.421 402.233 55.117 403.297 55.117C404.779 55.117 406.052 55.516 407.116 56.314C408.218 57.074 408.769 58.176 408.769 59.62C408.769 60 408.693 61.444 408.541 63.952C408.389 66.84 408.313 68.759 408.313 69.709C408.313 71.039 408.56 72.122 409.054 72.958C409.586 73.756 410.403 74.155 411.505 74.155C413.633 74.155 415.267 72.977 416.407 70.621C417.585 68.227 418.364 65.301 418.744 61.843C418.896 60.323 419.124 58.727 419.428 57.055C419.58 56.143 419.789 55.478 420.055 55.06C420.321 54.642 420.834 54.433 421.594 54.433C422.088 54.433 422.658 54.547 423.304 54.775C423.988 55.003 424.425 55.307 424.615 55.687C424.843 56.257 424.957 56.884 424.957 57.568C424.957 58.518 424.824 59.753 424.558 61.273C424.254 62.793 424.045 64.446 423.931 66.232C423.855 67.828 424.102 69.5 424.672 71.248C425.242 72.996 426.059 74.136 427.123 74.668C428.339 75.276 428.947 75.827 428.947 76.321C428.947 77.119 428.662 77.746 428.092 78.202C427.522 78.658 426.971 78.886 426.439 78.886C425.033 78.886 423.76 78.373 422.62 77.347C421.518 76.321 420.72 75.048 420.226 73.528C419.428 74.744 418.649 75.751 417.889 76.549C417.167 77.309 416.236 77.955 415.096 78.487C413.956 78.981 412.55 79.228 410.878 79.228C408.902 79.228 407.097 78.525 405.463 77.119C403.867 75.713 403.069 73.3 403.069 69.88C403.069 68.93 403.088 67.923 403.126 66.859C403.202 65.795 403.24 65.035 403.24 64.579C403.354 63.211 403.411 61.957 403.411 60.817C403.411 60.475 403.278 60.19 403.012 59.962C402.784 59.734 402.518 59.62 402.214 59.62C401.986 59.62 401.72 59.658 401.416 59.734C401.15 59.772 400.903 59.791 400.675 59.791ZM432.519 66.916C432.519 65.472 432.785 64.028 433.317 62.584C433.849 61.102 434.552 59.753 435.426 58.537C436.3 57.321 437.687 56.333 439.587 55.573C441.487 54.775 443.178 54.376 444.66 54.376C446.18 54.376 447.719 54.585 449.277 55.003C450.873 55.421 451.975 56.067 452.583 56.941C453.989 58.917 454.692 60.855 454.692 62.755C454.692 63.781 454.464 64.655 454.008 65.377C453.59 66.099 452.982 66.878 452.184 67.714C451.538 68.398 450.512 68.854 449.106 69.082C447.738 69.31 446.37 69.424 445.002 69.424C444.128 69.424 443.064 69.348 441.81 69.196C440.556 69.006 439.34 68.778 438.162 68.512C438.238 69.272 438.428 70.013 438.732 70.735C439.036 71.457 439.397 72.008 439.815 72.388C440.575 73.11 441.354 73.566 442.152 73.756C442.988 73.946 444.052 74.041 445.344 74.041C446.712 74.041 447.985 73.813 449.163 73.357C450.113 73.015 450.892 72.844 451.5 72.844C452.222 72.844 452.773 73.072 453.153 73.528C453.533 73.946 453.723 74.497 453.723 75.181C453.723 76.131 453.172 76.91 452.07 77.518C450.968 78.126 449.695 78.582 448.251 78.886C446.845 79.152 445.705 79.285 444.831 79.285C443.045 79.285 441.316 78.962 439.644 78.316C437.972 77.67 436.585 76.758 435.483 75.58C434.571 74.516 433.849 73.243 433.317 71.761C432.785 70.241 432.519 68.626 432.519 66.916ZM444.945 59.221C444.109 59.221 443.273 59.392 442.437 59.734C441.601 60.038 440.917 60.475 440.385 61.045C439.701 61.767 439.226 62.356 438.96 62.812C438.732 63.23 438.58 63.819 438.504 64.579C439.454 64.883 441.43 65.035 444.432 65.035C446.066 65.035 447.32 64.788 448.194 64.294C449.106 63.8 449.562 63.154 449.562 62.356C449.562 61.558 449.068 60.836 448.08 60.19C447.092 59.544 446.047 59.221 444.945 59.221Z" fill="white"/>
</svg>
