<svg width="9" height="16" viewBox="0 0 9 16" fill="none" xmlns="http://www.w3.org/2000/svg">
<path fill-rule="evenodd" clip-rule="evenodd" d="M0.445452 5.708C2.55345 5.474 5.71345 5.124 5.71345 5.124C5.71345 5.124 7.02245 2.226 7.89645 0.294C7.92176 0.238189 7.95707 0.187643 8.00013 0.14482V13.4403C7.19941 13.897 5.18926 15.0433 3.74345 15.865C3.57845 15.958 3.36845 15.956 3.20545 15.837C3.04145 15.718 2.97345 15.519 3.00945 15.331C3.43745 13.254 4.08145 10.141 4.08345 10.141C4.08345 10.141 1.73045 8.001 0.164452 6.572C0.0244525 6.445 -0.0385474 6.244 0.0244526 6.051C0.0874526 5.858 0.255452 5.731 0.445452 5.708ZM8.35709 5.76973e-05C8.35455 1.92787e-05 8.352 0 8.34945 0C8.34691 0 8.34438 1.92801e-05 8.34185 5.76973e-05H8.35709Z" fill="#F8B400"/>
</svg>
