<svg width="654" height="130" viewBox="0 0 654 130" fill="none" xmlns="http://www.w3.org/2000/svg">
<path d="M3.64099 1H651.5C652.605 1 653.5 1.89543 653.5 3V115.314C653.5 115.759 653.352 116.191 653.079 116.542L646.579 124.899C645.41 126.402 643 125.575 643 123.671V118C643 116.895 642.105 116 641 116H3.74628C2.14703 116 1.19464 114.216 2.08447 112.887L36.7739 61.0843C37.2151 60.4254 37.2254 59.568 36.8 58.8987L1.95306 4.07283C1.10675 2.74133 2.06329 1 3.64099 1Z" fill="#33784A" stroke="#33784A"/>
<path d="M207.011 42.805C207.733 42.805 208.379 42.995 208.949 43.375C209.557 43.755 209.918 44.42 210.032 45.37C210.488 48.372 210.773 51.374 210.887 54.376C211.039 57.34 211.115 60.703 211.115 64.465C211.115 66.061 210.982 68.968 210.716 73.186C212.388 73.338 213.68 73.414 214.592 73.414C215.238 73.414 216.701 73.319 218.981 73.129C220.311 72.939 221.47 72.844 222.458 72.844C223.37 72.844 224.206 72.939 224.966 73.129C225.726 73.281 226.505 73.547 227.303 73.927C228.101 74.383 228.5 75.086 228.5 76.036C228.5 76.796 228.253 77.48 227.759 78.088C227.303 78.696 226.752 79 226.106 79C225.65 79 224.928 78.924 223.94 78.772C222.154 78.506 220.444 78.373 218.81 78.373C218.278 78.373 217.67 78.411 216.986 78.487C216.34 78.525 215.865 78.544 215.561 78.544C214.649 78.658 213.737 78.715 212.825 78.715C210.963 78.715 209.291 78.62 207.809 78.43C207.049 78.354 206.289 78.069 205.529 77.575C204.769 77.043 204.389 76.283 204.389 75.295C204.389 74.725 204.465 73.262 204.617 70.906C204.883 66.992 205.016 64.009 205.016 61.957C205.016 60.361 204.94 58.689 204.788 56.941C204.636 55.193 204.541 54.091 204.503 53.635C204.161 50.405 203.99 47.745 203.99 45.655C203.99 44.667 204.218 43.945 204.674 43.489C205.168 43.033 205.947 42.805 207.011 42.805ZM254.371 60.703C254.675 61.235 254.922 62.014 255.112 63.04C255.302 64.028 255.397 64.921 255.397 65.719C255.397 67.201 255.074 69.31 254.428 72.046C251.806 76.834 247.93 79.228 242.8 79.228C240.9 79.228 238.962 78.601 236.986 77.347C235.01 76.093 233.642 74.649 232.882 73.015C231.856 69.747 231.343 67.676 231.343 66.802C231.343 65.282 231.666 63.667 232.312 61.957C232.996 60.247 233.851 58.765 234.877 57.511C235.523 56.637 236.682 55.896 238.354 55.288C240.026 54.642 241.546 54.319 242.914 54.319C245.574 54.319 247.835 54.832 249.697 55.858C251.559 56.846 253.117 58.461 254.371 60.703ZM249.412 69.88C249.602 69.386 249.697 68.113 249.697 66.061C249.697 64.959 249.488 63.876 249.07 62.812C248.69 61.748 248.12 60.836 247.36 60.076C247.284 60 247.075 59.886 246.733 59.734C246.391 59.544 245.916 59.373 245.308 59.221C244.738 59.031 244.073 58.936 243.313 58.936C241.185 58.936 239.627 59.791 238.639 61.501C237.651 63.211 237.157 65.149 237.157 67.315C237.157 67.695 237.252 68.417 237.442 69.481C237.67 70.545 237.86 71.21 238.012 71.476C238.126 71.742 238.411 72.122 238.867 72.616C239.361 73.072 239.95 73.49 240.634 73.87C241.356 74.212 242.097 74.383 242.857 74.383C244.567 74.383 245.935 73.984 246.961 73.186C247.987 72.35 248.804 71.248 249.412 69.88ZM287.301 65.434C287.529 64.598 287.776 63.458 288.042 62.014C288.422 60.304 288.726 59.012 288.954 58.138C289.182 57.264 289.486 56.523 289.866 55.915C290.284 55.231 290.645 54.775 290.949 54.547C291.291 54.319 291.652 54.205 292.032 54.205C294.008 54.205 294.996 54.965 294.996 56.485C294.996 57.245 294.692 58.67 294.084 60.76C292.07 66.84 290.626 71.552 289.752 74.896C289.372 76.302 288.802 77.385 288.042 78.145C287.282 78.867 286.256 79.228 284.964 79.228C284.318 79.228 283.653 78.924 282.969 78.316C282.323 77.67 281.791 76.891 281.373 75.979L280.746 74.44C279.682 71.742 278.884 69.671 278.352 68.227C277.858 66.745 277.535 65.415 277.383 64.237L276.87 66.061C275.958 69.329 275.008 72.369 274.02 75.181C273.526 76.625 272.918 77.67 272.196 78.316C271.474 78.924 270.543 79.228 269.403 79.228C268.719 79.228 268.111 79.076 267.579 78.772C267.085 78.468 266.61 77.955 266.154 77.233C265.546 76.245 264.957 74.915 264.387 73.243C263.855 71.571 263.076 68.968 262.05 65.434C261.556 63.914 261.1 62.318 260.682 60.646C260.264 58.936 260.055 57.739 260.055 57.055C260.055 56.257 260.264 55.63 260.682 55.174C261.1 54.718 261.708 54.49 262.506 54.49C263.532 54.49 264.254 54.699 264.672 55.117C265.09 55.497 265.47 56.086 265.812 56.884C266.002 58.252 266.42 60.19 267.066 62.698L268.32 68.056C268.396 68.474 268.624 69.348 269.004 70.678L269.46 72.331C270.296 70.545 270.999 68.835 271.569 67.201C272.139 65.567 272.766 63.553 273.45 61.159C273.488 61.007 273.868 59.696 274.59 57.226C275.084 56.428 275.521 55.839 275.901 55.459C276.281 55.041 276.661 54.832 277.041 54.832C277.801 54.832 278.447 55.079 278.979 55.573C279.549 56.029 279.967 56.599 280.233 57.283C280.689 58.765 281.088 60.114 281.43 61.33C281.582 61.824 281.924 63.021 282.456 64.921C283.026 66.783 283.539 68.36 283.995 69.652C284.451 70.944 284.831 71.856 285.135 72.388L287.301 65.434ZM299.195 65.947C299.195 63.629 299.708 61.71 300.734 60.19C301.76 58.632 303.185 57.169 305.009 55.801C305.541 55.421 306.434 55.098 307.688 54.832C308.942 54.528 310.044 54.376 310.994 54.376C312.134 54.376 313.331 54.623 314.585 55.117C315.877 55.573 316.922 56.105 317.72 56.713C319.126 57.739 320.095 58.936 320.627 60.304C321.159 61.634 321.425 63.23 321.425 65.092C321.425 65.89 320.969 66.669 320.057 67.429C319.183 68.151 318.233 68.512 317.207 68.512L315.041 68.455C313.939 68.455 312.362 68.493 310.31 68.569L309.113 68.626C308.277 68.702 307.65 68.74 307.232 68.74C306.624 68.74 305.788 68.664 304.724 68.512C304.876 70.298 305.541 71.704 306.719 72.73C307.897 73.718 309.17 74.212 310.538 74.212C312.932 74.212 314.604 73.737 315.554 72.787C316.352 72.217 316.884 71.856 317.15 71.704C317.416 71.552 317.834 71.476 318.404 71.476C319.012 71.476 319.544 71.761 320 72.331C320.456 72.901 320.684 73.471 320.684 74.041C320.684 74.687 320.285 75.352 319.487 76.036C318.727 76.682 317.682 77.366 316.352 78.088C315.63 78.392 314.642 78.658 313.388 78.886C312.134 79.114 311.089 79.228 310.253 79.228C308.923 79.228 307.441 78.848 305.807 78.088C304.173 77.29 302.957 76.416 302.159 75.466C301.361 74.516 300.658 73.167 300.05 71.419C299.48 69.671 299.195 67.847 299.195 65.947ZM310.538 64.408C313.236 64.408 315.212 64.313 316.466 64.123C316.39 63.021 316.048 62.128 315.44 61.444C314.832 60.722 313.996 60.114 312.932 59.62C312.59 59.468 312.286 59.354 312.02 59.278C311.754 59.202 311.45 59.164 311.108 59.164C309.36 59.164 307.878 59.639 306.662 60.589C305.484 61.539 304.781 62.755 304.553 64.237C306.453 64.351 308.448 64.408 310.538 64.408ZM342.778 66.688C343.082 66.878 343.671 67.239 344.545 67.771C345.457 68.265 346.065 68.854 346.369 69.538C346.673 70.222 346.825 71.172 346.825 72.388C346.825 73.756 346.426 74.972 345.628 76.036C344.83 77.062 343.804 77.86 342.55 78.43C341.676 78.81 340.726 79.038 339.7 79.114C338.712 79.19 337.515 79.228 336.109 79.228C335.349 79.228 334.361 79.114 333.145 78.886C331.967 78.658 331.15 78.449 330.694 78.259C329.478 77.575 328.452 76.777 327.616 75.865C326.78 74.953 326.362 74.022 326.362 73.072C326.362 72.312 326.609 71.704 327.103 71.248C327.597 70.792 328.243 70.564 329.041 70.564C329.459 70.564 329.858 70.678 330.238 70.906C330.656 71.096 330.941 71.324 331.093 71.59C331.511 72.578 332.214 73.319 333.202 73.813C334.19 74.307 335.197 74.554 336.223 74.554C339.833 74.554 341.638 73.908 341.638 72.616C341.638 72.274 341.543 72.008 341.353 71.818C341.201 71.59 340.973 71.362 340.669 71.134C340.175 70.792 339.472 70.431 338.56 70.051C337.686 69.671 336.907 69.386 336.223 69.196C334.665 68.854 333.145 68.341 331.663 67.657C330.295 66.973 329.174 66.08 328.3 64.978C327.426 63.838 326.989 62.451 326.989 60.817C326.989 59.829 327.35 58.86 328.072 57.91C328.832 56.922 329.706 56.181 330.694 55.687C331.378 55.421 332.499 55.136 334.057 54.832C335.615 54.528 336.679 54.376 337.249 54.376C338.123 54.376 339.073 54.471 340.099 54.661C341.125 54.813 341.904 55.079 342.436 55.459C343.462 56.067 344.298 56.713 344.944 57.397C345.59 58.043 345.913 58.784 345.913 59.62C345.913 60.038 345.818 60.494 345.628 60.988C345.438 61.444 345.21 61.729 344.944 61.843C344.374 62.109 343.709 62.242 342.949 62.242C342.607 62.242 342.322 62.147 342.094 61.957C341.904 61.767 341.638 61.463 341.296 61.045C340.878 60.399 340.479 60.019 340.099 59.905C339.643 59.791 338.978 59.658 338.104 59.506C337.23 59.316 336.641 59.221 336.337 59.221C335.387 59.221 334.475 59.411 333.601 59.791C332.765 60.171 332.347 60.684 332.347 61.33C332.347 62.09 332.974 62.736 334.228 63.268C335.026 63.648 335.9 63.971 336.85 64.237C337.838 64.503 338.446 64.674 338.674 64.75C339.206 64.864 339.89 65.13 340.726 65.548C341.6 65.966 342.284 66.346 342.778 66.688ZM352.315 59.278C351.783 59.202 351.346 58.974 351.004 58.594C350.7 58.214 350.548 57.758 350.548 57.226C350.548 56.96 350.605 56.675 350.719 56.371C350.871 56.067 351.08 55.801 351.346 55.573C351.84 55.155 352.505 54.756 353.341 54.376C354.215 54.034 354.842 53.616 355.222 53.122C355.602 52.628 355.792 51.697 355.792 50.329C355.792 49.759 355.754 49.265 355.678 48.847C355.64 48.429 355.621 48.106 355.621 47.878C355.621 47.042 355.925 46.415 356.533 45.997C357.141 45.579 357.844 45.37 358.642 45.37C359.63 45.37 360.295 45.617 360.637 46.111C361.017 46.605 361.207 47.517 361.207 48.847C361.207 50.139 361.15 51.26 361.036 52.21C360.922 53.122 360.675 53.939 360.295 54.661C360.827 54.661 361.701 54.623 362.917 54.547C364.589 54.471 365.748 54.433 366.394 54.433C367.04 54.433 367.61 54.604 368.104 54.946C368.598 55.25 368.845 55.687 368.845 56.257C368.845 57.055 368.674 57.644 368.332 58.024C367.99 58.404 367.496 58.651 366.85 58.765C365.292 59.183 363.088 59.43 360.238 59.506C360.162 60.988 360.124 62.603 360.124 64.351C360.124 67.277 360.295 69.519 360.637 71.077C360.865 72.293 361.245 73.186 361.777 73.756C362.347 74.288 363.183 74.554 364.285 74.554C364.855 74.554 365.311 74.478 365.653 74.326C366.033 74.174 366.242 74.079 366.28 74.041C366.736 73.775 367.154 73.642 367.534 73.642C368.066 73.642 368.446 73.813 368.674 74.155C368.94 74.497 369.073 74.953 369.073 75.523C369.073 76.587 368.503 77.48 367.363 78.202C366.223 78.886 364.76 79.228 362.974 79.228C360.96 79.228 359.25 78.639 357.844 77.461C356.476 76.245 355.659 74.649 355.393 72.673C355.013 70.887 354.823 68.379 354.823 65.149C354.823 63.743 354.899 61.862 355.051 59.506L352.315 59.278ZM401.596 66.118C400.114 66.118 398.86 66.08 397.834 66.004C396.846 65.89 395.535 65.719 393.901 65.491L393.844 71.476C393.806 72.502 393.787 73.965 393.787 75.865C393.787 76.853 393.502 77.632 392.932 78.202C392.4 78.734 391.792 79 391.108 79C389.854 79 388.923 78.848 388.315 78.544C387.707 78.202 387.403 77.613 387.403 76.777C387.403 75.675 387.498 74.117 387.688 72.103C388.106 67.771 388.315 63.325 388.315 58.765C388.315 54.509 388.182 50.5 387.916 46.738C387.954 46.206 388.22 45.598 388.714 44.914C389.246 44.23 389.911 43.85 390.709 43.774C391.583 43.774 392.97 43.622 394.87 43.318C396.846 43.014 398.347 42.862 399.373 42.862C402.489 42.862 404.902 43.166 406.612 43.774C408.36 44.382 410.108 45.389 411.856 46.795C413.756 49.759 414.706 51.849 414.706 53.065C414.706 55.611 414.193 57.872 413.167 59.848C412.141 61.824 410.64 63.363 408.664 64.465C406.688 65.567 404.332 66.118 401.596 66.118ZM400.285 47.707C399.069 47.707 398.005 47.783 397.093 47.935C396.219 48.049 395.155 48.258 393.901 48.562C394.053 52.058 394.129 54.604 394.129 56.2C394.129 57.834 394.072 59.202 393.958 60.304C395.592 60.646 396.884 60.874 397.834 60.988C398.784 61.064 399.848 61.102 401.026 61.102C403.838 61.102 405.814 60.38 406.954 58.936C408.132 57.454 408.721 55.744 408.721 53.806C408.721 53.236 408.55 52.533 408.208 51.697C407.866 50.861 407.562 50.31 407.296 50.044C406.27 49.132 405.263 48.524 404.275 48.22C403.325 47.878 401.995 47.707 400.285 47.707ZM427.434 76.72C427.434 77.366 427.187 77.936 426.693 78.43C426.199 78.924 425.591 79.171 424.869 79.171C423.729 79.171 422.893 78.962 422.361 78.544C421.829 78.088 421.563 77.271 421.563 76.093C421.563 74.687 421.525 72.844 421.449 70.564C421.373 68.664 421.335 67.068 421.335 65.776C421.335 65.168 421.373 64.37 421.449 63.382C421.525 62.47 421.563 61.786 421.563 61.33C421.449 60.608 421.164 60.019 420.708 59.563C420.252 59.069 419.663 58.822 418.941 58.822C418.599 58.822 418.314 58.67 418.086 58.366C417.858 58.024 417.744 57.682 417.744 57.34C417.744 56.466 418.086 55.801 418.77 55.345C419.492 54.889 420.347 54.661 421.335 54.661C423.387 54.661 424.812 55.877 425.61 58.309C426.598 57.169 427.719 56.257 428.973 55.573C430.265 54.851 431.5 54.49 432.678 54.49C434.084 54.49 435.357 54.87 436.497 55.63C437.675 56.39 438.264 57.416 438.264 58.708C438.264 59.43 437.941 60.171 437.295 60.931C436.687 61.691 436.06 62.071 435.414 62.071C435.072 62.071 434.768 61.995 434.502 61.843C434.274 61.653 433.989 61.387 433.647 61.045C433.267 60.665 432.944 60.399 432.678 60.247C432.412 60.057 432.108 59.962 431.766 59.962C431.158 59.962 430.588 60.057 430.056 60.247C429.524 60.437 429.163 60.665 428.973 60.931C428.365 61.881 427.909 62.736 427.605 63.496C427.339 64.256 427.206 65.073 427.206 65.947C427.206 66.593 427.187 67.106 427.149 67.486L427.092 70.735C427.092 71.229 427.111 71.78 427.149 72.388C427.187 72.996 427.225 73.452 427.263 73.756C427.377 74.782 427.434 75.77 427.434 76.72ZM444.446 42.406C445.776 42.52 446.916 42.881 447.866 43.489C448.854 44.059 449.348 44.933 449.348 46.111C449.348 46.985 448.949 47.688 448.151 48.22C447.353 48.714 446.365 48.961 445.187 48.961C444.085 48.961 443.325 48.676 442.907 48.106C442.489 47.536 442.28 46.947 442.28 46.339C442.28 45.237 442.413 44.306 442.679 43.546C442.945 42.748 443.534 42.368 444.446 42.406ZM443.306 65.947V64.294C443.306 62.394 443.211 60.665 443.021 59.107C442.869 57.511 442.774 56.523 442.736 56.143C442.774 55.725 443.059 55.326 443.591 54.946C444.123 54.566 444.598 54.376 445.016 54.376C445.738 54.376 446.46 54.528 447.182 54.832C447.942 55.098 448.417 55.44 448.607 55.858C448.797 57.264 448.892 58.347 448.892 59.107C448.892 60.779 448.968 63.515 449.12 67.315L449.177 69.538L449.291 71.704C449.329 72.312 449.367 73.034 449.405 73.87C449.443 74.706 449.462 75.656 449.462 76.72C449.462 77.442 449.101 78.05 448.379 78.544C447.695 79.038 446.973 79.285 446.213 79.285C445.111 79.285 444.332 79.038 443.876 78.544C443.458 78.05 443.249 77.271 443.249 76.207L443.306 65.947ZM473.852 61.729C473.282 61.729 472.788 61.596 472.37 61.33C471.99 61.026 471.591 60.627 471.173 60.133C470.755 59.639 470.299 59.316 469.805 59.164C469.349 59.012 468.817 58.936 468.209 58.936C467.107 58.936 466.024 59.278 464.96 59.962C463.934 60.608 463.079 61.52 462.395 62.698C461.749 63.876 461.426 65.187 461.426 66.631C461.426 68.227 461.73 69.557 462.338 70.621C462.984 71.685 463.991 72.616 465.359 73.414C465.853 73.68 466.423 73.889 467.069 74.041C467.753 74.193 468.342 74.269 468.836 74.269C470.014 74.269 471.534 73.756 473.396 72.73C473.548 72.654 473.833 72.521 474.251 72.331C474.707 72.103 475.049 71.989 475.277 71.989C475.695 71.989 476.17 72.198 476.702 72.616C477.234 72.996 477.5 73.471 477.5 74.041C477.5 75.181 477.006 76.15 476.018 76.948C475.068 77.746 473.871 78.335 472.427 78.715C470.983 79.095 469.558 79.285 468.152 79.285C465.91 79.285 463.82 78.772 461.882 77.746C459.944 76.72 458.405 75.295 457.265 73.471C456.125 71.647 455.555 69.595 455.555 67.315C455.555 64.845 456.106 62.622 457.208 60.646C458.31 58.632 459.792 57.055 461.654 55.915C463.554 54.737 465.606 54.148 467.81 54.148C469.938 54.148 471.895 54.566 473.681 55.402C475.505 56.238 476.417 57.511 476.417 59.221C476.417 60.893 475.562 61.729 473.852 61.729ZM481.609 66.916C481.609 65.472 481.875 64.028 482.407 62.584C482.939 61.102 483.642 59.753 484.516 58.537C485.39 57.321 486.777 56.333 488.677 55.573C490.577 54.775 492.268 54.376 493.75 54.376C495.27 54.376 496.809 54.585 498.367 55.003C499.963 55.421 501.065 56.067 501.673 56.941C503.079 58.917 503.782 60.855 503.782 62.755C503.782 63.781 503.554 64.655 503.098 65.377C502.68 66.099 502.072 66.878 501.274 67.714C500.628 68.398 499.602 68.854 498.196 69.082C496.828 69.31 495.46 69.424 494.092 69.424C493.218 69.424 492.154 69.348 490.9 69.196C489.646 69.006 488.43 68.778 487.252 68.512C487.328 69.272 487.518 70.013 487.822 70.735C488.126 71.457 488.487 72.008 488.905 72.388C489.665 73.11 490.444 73.566 491.242 73.756C492.078 73.946 493.142 74.041 494.434 74.041C495.802 74.041 497.075 73.813 498.253 73.357C499.203 73.015 499.982 72.844 500.59 72.844C501.312 72.844 501.863 73.072 502.243 73.528C502.623 73.946 502.813 74.497 502.813 75.181C502.813 76.131 502.262 76.91 501.16 77.518C500.058 78.126 498.785 78.582 497.341 78.886C495.935 79.152 494.795 79.285 493.921 79.285C492.135 79.285 490.406 78.962 488.734 78.316C487.062 77.67 485.675 76.758 484.573 75.58C483.661 74.516 482.939 73.243 482.407 71.761C481.875 70.241 481.609 68.626 481.609 66.916ZM494.035 59.221C493.199 59.221 492.363 59.392 491.527 59.734C490.691 60.038 490.007 60.475 489.475 61.045C488.791 61.767 488.316 62.356 488.05 62.812C487.822 63.23 487.67 63.819 487.594 64.579C488.544 64.883 490.52 65.035 493.522 65.035C495.156 65.035 496.41 64.788 497.284 64.294C498.196 63.8 498.652 63.154 498.652 62.356C498.652 61.558 498.158 60.836 497.17 60.19C496.182 59.544 495.137 59.221 494.035 59.221Z" fill="white"/>
</svg>
